<?xml version="1.0" encoding="UTF-8" standalone="no"?>
<svg
   id="eVK6qyRHtzO1"
   viewBox="0 0 300 300"
   shape-rendering="geometricPrecision"
   text-rendering="geometricPrecision"
   project-id="a292f2247fe54bca82aae754a06e39b4"
   export-id="2a220e28156649e3b7342451f7800469"
   cached="false"
   style="background-color:transparent"
   version="1.1"
   xmlns="http://www.w3.org/2000/svg"
   xmlns:svg="http://www.w3.org/2000/svg">
  <defs
     id="defs5">
    <linearGradient
       id="eVK6qyRHtzO31-fill"
       x1="0.5"
       y1="0"
       x2="0.5"
       y2="1"
       spreadMethod="pad"
       gradientUnits="objectBoundingBox"
       gradientTransform="translate(0 0)">
      <stop
         id="eVK6qyRHtzO31-fill-0"
         offset="0%"
         stop-color="rgba(255,255,255,0)" />
      <stop
         id="eVK6qyRHtzO31-fill-1"
         offset="100%"
         stop-color="#010022" />
    </linearGradient>
  </defs>
  <g
     id="eVK6qyRHtzO2"
     transform="matrix(.93357 0 0 0.93357 57.64957 57.64957)"
     opacity="0">
    <g
       transform="translate(98.939 98.939)"
       id="g9">
      <path
         d="M23.036,-85.967C70.515,-73.245,98.69,-24.443,85.969,23.035C73.246,70.514,24.443,98.689,-23.035,85.967c-47.478-12.723-75.654-61.524-62.931-109.002c12.721-47.479,61.523-75.654,109.002-62.932Z"
         fill="#00da8f"
         stroke-width="0"
         id="path7" />
    </g>
    <g
       transform="translate(98.943 102.024)"
       id="g13">
      <path
         d="M-26.138,30.587c-1.424.805-3.23.32-4.061-1.089c0,0-28.7-48.687-28.7-48.687-.93-1.899-1.101-4.068-.479-6.072.622-2.006,1.992-3.697,3.836-4.74c1.844-1.042,4.026-1.357,6.109-.883c2.084.474,3.916,1.703,5.131,3.443c0,0,20.684,35.088,20.684,35.088.553.939,1.758,1.261,2.707.724c0,0,68.482-38.715,68.482-38.715c1.921-.899,4.124-1.048,6.165-.416c2.042.631,3.773,1.994,4.848,3.82c1.076,1.823,1.416,3.975.953,6.022s-1.695,3.839-3.451,5.02c0,0-82.224,46.485-82.224,46.485Z"
         fill="#fff"
         stroke-width="0"
         id="path11" />
    </g>
  </g>
  <g
     id="eVK6qyRHtzO7"
     transform="matrix(.62 0 0 0.62 88.79 85.24)"
     opacity="0">
    <g
       transform="matrix(.68 0 0 0.68 12.829 84.352)"
       id="g18">
      <path
         d="M-2.421,-11.243c6.209-1.337,12.326,2.612,13.664,8.82C12.58,3.786,8.631,9.905,2.422,11.242C-3.787,12.58,-9.905,8.63,-11.243,2.421c-1.337-6.209,2.613-12.327,8.822-13.664Z"
         fill="#fd5e75"
         stroke-width="0"
         id="path16" />
    </g>
    <g
       transform="matrix(.67 0 0 0.67 178.004 59.795)"
       id="g22">
      <path
         d="M-2.423,-11.242c6.209-1.337,12.327,2.611,13.664,8.82C12.579,3.787,8.63,9.904,2.421,11.242c-6.209,1.337-12.326-2.611-13.664-8.82-1.337-6.209,2.612-12.327,8.82-13.664Z"
         fill="#1e52c7"
         stroke-width="0"
         id="path20" />
    </g>
    <g
       transform="matrix(.7 0 0 0.7 103.291 12.83)"
       id="g26">
      <path
         d="M-2.421,-11.243c6.209-1.337,12.326,2.612,13.663,8.82C12.58,3.786,8.63,9.905,2.421,11.242C-3.788,12.58,-9.905,8.63,-11.243,2.421c-1.337-6.209,2.613-12.327,8.822-13.664Z"
         fill="#fcb939"
         stroke-width="0"
         id="path24" />
    </g>
    <g
       transform="matrix(.7 0 0 0.7 63.997 183.011)"
       id="g30">
      <path
         d="M-2.421,-11.242c6.209-1.338,12.325,2.611,13.663,8.82c1.337,6.209-2.611,12.326-8.82,13.664-6.209,1.337-12.327-2.611-13.665-8.82-1.337-6.208,2.613-12.327,8.822-13.664Z"
         fill="#1e52c7"
         stroke-width="0"
         id="path28" />
    </g>
    <g
       transform="matrix(.71 0 0 0.71 173.998 145.423)"
       id="g34">
      <path
         d="M-2.421,-11.243c6.208-1.337,12.326,2.612,13.663,8.821C12.58,3.787,8.63,9.904,2.421,11.241c-6.209,1.338-12.326-2.611-13.664-8.82-1.337-6.209,2.613-12.326,8.822-13.664Z"
         fill="#9917ec"
         stroke-width="0"
         id="path32" />
    </g>
  </g>
  <g
     id="eVK6qyRHtzO18"
     transform="translate(51.06 51.061)">
    <g
       transform="translate(98.939 98.939)"
       id="g38">
      <path
         id="eVK6qyRHtzO20"
         d="M23.036,-85.967C70.515,-73.245,98.69,-24.443,85.969,23.035C73.246,70.514,24.443,98.689,-23.035,85.967c-47.478-12.723-75.654-61.524-62.931-109.002c12.721-47.479,61.523-75.654,109.002-62.932Z"
         fill="#e6e6e6"
         stroke-width="0" />
    </g>
    <g
       transform="matrix(.816169-.182435 0.182435 0.816169 99.943 103.024)"
       id="g42">
      <path
         d="M-26.138,30.587c-1.424.805-3.23.32-4.061-1.089c0,0-28.7-48.687-28.7-48.687-.93-1.899-1.101-4.068-.479-6.072.622-2.006,1.992-3.697,3.836-4.74c1.844-1.042,4.026-1.357,6.109-.883c2.084.474,3.916,1.703,5.131,3.443c0,0,20.684,35.088,20.684,35.088.553.939,1.758,1.261,2.707.724c0,0,68.482-38.715,68.482-38.715c1.921-.899,4.124-1.048,6.165-.416c2.042.631,3.773,1.994,4.848,3.82c1.076,1.823,1.416,3.975.953,6.022s-1.695,3.839-3.451,5.02c0,0-82.224,46.485-82.224,46.485Z"
         fill="#fff"
         stroke-width="0"
         id="path40" />
    </g>
  </g>
  <g
     id="eVK6qyRHtzO23"
     transform="matrix(1.09756 0 0 1.01856 145.35366 145.74536)"
     opacity="0">
    <path
       id="eVK6qyRHtzO24"
       d="M-57.75,-75.75c0,0,.75-30.75-33-31.75"
       paint-order="stroke fill markers"
       fill="none"
       fill-rule="evenodd"
       stroke="#fd5e75"
       stroke-width="5"
       stroke-linecap="round"
       stroke-dasharray="0,0,0,51.27" />
  </g>
  <g
     id="eVK6qyRHtzO25"
     transform="translate(-21 347)"
     opacity="0">
    <path
       id="eVK6qyRHtzO26"
       d="M90.75,-122.25c0,0,13.25,16.25-7.25,11.75s-2.25,13.25-2.25,13.25s6.75,13.25-11.5,4-5.25,14.25-8.75,17.5"
       paint-order="stroke fill markers"
       fill="none"
       fill-rule="evenodd"
       stroke="#9917ec"
       stroke-width="5"
       stroke-linecap="round"
       stroke-dasharray="0,0,0,97.14" />
  </g>
  <g
     id="eVK6qyRHtzO27"
     transform="matrix(-.841857-.357347 0.349239-.822756 132.583383 96.105738)"
     opacity="0">
    <path
       id="eVK6qyRHtzO28"
       d="M-75,68.75c0,0-2.791,42.834-32.25,17.75C-132.5,65,-89,58.25,-94,84c-5.515,28.405-29,28.25-34.75,29"
       paint-order="stroke fill markers"
       fill="none"
       fill-rule="evenodd"
       stroke="#fcb939"
       stroke-width="5"
       stroke-linecap="round"
       stroke-dasharray="0,0,0,152.57" />
  </g>
  <g
     id="eVK6qyRHtzO29"
     transform="translate(151 151)"
     opacity="0">
    <path
       id="eVK6qyRHtzO30"
       d="M61,78.5c0,0-5.5,14.5,17,22s16,15,16,15"
       paint-order="stroke fill markers"
       fill="none"
       fill-rule="evenodd"
       stroke="#1e52c7"
       stroke-width="5"
       stroke-linecap="round"
       stroke-dasharray="0,0,0,55.81" />
  </g>
</svg>
