<svg id="vector" xmlns="http://www.w3.org/2000/svg" width="96" height="96" viewBox="0 0 512 512"><path fill="#00112b" d="M232,1.1c-86.8,8.3 -164.3,60.8 -203.9,138.1 -21.8,42.7 -31.4,92.4 -27,139.8 7.6,82.7 53.4,155 124.9,197.4 116.2,68.7 266,35.1 341.9,-76.9 22.1,-32.6 35.4,-67.2 41.8,-108.5 2.1,-14.2 2.5,-52.8 0.5,-66.5 -4.7,-32.6 -15.1,-65.3 -29,-90.5 -5.4,-10 -19.3,-30.6 -26.7,-39.8 -26.2,-32.4 -65.1,-60.9 -103.6,-76 -38,-14.8 -79.8,-20.9 -118.9,-17.1zM278.1,37c75.4,7.6 141.6,53.6 175,121.5 10.7,21.9 16.7,40.5 20.6,64.6 2.4,14.5 2.4,51.3 0,65.8 -3.8,23.6 -9.8,42.3 -20.2,63.6 -38.3,78.6 -117.9,126.4 -205,123.2 -32.4,-1.2 -58.6,-7.6 -87,-21.1 -20.8,-10 -35.5,-19.8 -53.2,-35.4 -33.1,-29.5 -58.9,-74.5 -67.7,-118.4 -13.5,-67.2 3.3,-133.7 47.2,-186.6 45.5,-54.9 118.3,-84.4 190.3,-77.2z" stroke="#00000000" id="path_0"/><path fill="#00112b" d="M349.3,105.4c-12.3,3 -24.7,12.5 -30.5,23.2 -10.1,18.7 -6.8,41.6 8.1,56.5 9.9,9.9 22.4,14.5 36.6,13.6 4.6,-0.3 10.5,-1.4 13.8,-2.7 12.6,-4.8 24.1,-16.8 28.3,-29.7 2.8,-8.5 2.5,-22.8 -0.6,-30.8 -8.9,-23.1 -32.4,-35.7 -55.7,-30.1z" stroke="#00000000" id="path_1"/><path fill="#00112b" d="M273.1,161.5c-5.2,1.8 -10.1,4.1 -10.8,5.1 -0.7,1 -1.3,3.5 -1.3,5.6 0,4.2 2.4,7.4 6.4,8.4 3.6,0.9 24.2,-6.1 26.1,-8.9 2.3,-3.3 1.9,-8.4 -1,-11.2 -3.3,-3.4 -7.8,-3.2 -19.4,1z" stroke="#00000000" id="path_2"/><path fill="#00112b" d="M166.2,197.1c-37.8,12.6 -69.7,23.4 -70.9,24 -7.1,3.8 -4.1,15.9 4,15.9 1.8,-0 34.3,-10.3 72.2,-23 50.5,-16.8 69.5,-23.5 70.8,-25.1 3.7,-4.6 0.8,-13.1 -4.9,-14.2 -1.7,-0.3 -25.4,7.1 -71.2,22.4z" stroke="#00000000" id="path_3"/><path fill="#00112b" d="M340.2,220.7c-2.2,2 -3.9,5.5 -6.1,12.3 -1.7,5.2 -3.1,10.6 -3.1,11.8 0,1.3 1.4,3.7 3,5.4 2.7,2.6 3.6,3 6.8,2.5 2,-0.4 4.5,-1.6 5.4,-2.7 2.2,-2.7 7.8,-19.6 7.8,-23.6 0,-3.7 -3.3,-7.1 -7.7,-8 -2.5,-0.5 -3.6,-0.1 -6.1,2.3z" stroke="#00000000" id="path_4"/><path fill="#00112b" d="M60,225.3c-1.9,1.2 -4.3,3.8 -5.4,5.7 -1.9,3.2 -2.1,5.1 -2.1,24.5 0.1,17.3 0.5,23.3 2.4,34 15.4,86.9 80.7,152.2 167.6,167.6 10.8,1.9 16.5,2.3 34,2.3 17.8,-0 21.5,-0.2 24.2,-1.7 9.9,-5.3 10.6,-17.3 1.4,-23.4 -3.2,-2.2 -4,-2.2 -18,-1.7 -78.9,3.4 -149.6,-44.7 -175.4,-119.2 -7.2,-20.8 -10.3,-42.3 -9.4,-65.5 0.6,-13.2 0.4,-14.8 -1.3,-17.7 -4.2,-6.9 -12,-9 -18,-4.9z" stroke="#00000000" id="path_5"/><path fill="#00112b" d="M324.3,270.2c-1.2,0.6 -2.8,2.5 -3.6,4.2 -3.5,7.5 -46,137.3 -45.9,140 0.2,6.3 9.1,10 14.1,5.9 1.6,-1.3 8.3,-20.3 25.1,-70.8 12.7,-37.9 23,-70.3 23,-72 -0.1,-6.4 -6.7,-10.2 -12.7,-7.3z" stroke="#00000000" id="path_6"/></svg>